<svg xmlns="http://www.w3.org/2000/svg" xmlns:xlink="http://www.w3.org/1999/xlink" width="1295.26" height="603.782" viewBox="0 0 1295.26 603.782">
  <defs>
    <linearGradient id="linear-gradient" x1="0.5" x2="0.5" y2="1" gradientUnits="objectBoundingBox">
      <stop offset="0" stop-color="#fff" stop-opacity="0.4"/>
      <stop offset="1" stop-color="#0d455f" stop-opacity="0"/>
    </linearGradient>
  </defs>
  <path id="Контур_111" data-name="Контур 111" d="M424.884,0H154.344V-42.094H169.69q32.447,0,46.917-5.262t17.978-16.881q3.508-11.62,3.508-39.244V-190.3H27.624v-56.563L285.448-590.189h59.194v349.466h80.241V-190.3H344.643v86.818q0,28.5,4.385,41T366.786-46.04q13.374,3.946,43.628,3.946h14.47ZM238.093-240.724V-459.962L74.541-240.724ZM872.13-282.817q0,63.141-7.673,106.331t-22.362,73.226a237.139,237.139,0,0,1-35.736,53.713Q750.233,13.593,673.5,13.593q-32.886,0-67.525-14.031t-64.456-46.7Q511.7-79.8,493.286-136.147T474.87-272.294q0-71.91,8.112-120.362t19.074-72.568a312.709,312.709,0,0,1,27.624-48.232q54.81-76.733,143.82-76.733,91.2,0,143.82,76.733,24.116,32.886,39.463,83.311T872.13-282.817Zm-117.95-5.262v-57.879q0-64.895-5.042-106.111t-22.8-68.4q-17.758-27.186-52.836-27.186-37.27,0-54.59,29.378t-21.7,81.557q-4.385,52.179-4.385,148.644,0,93.4,4.385,145.793t21.7,82.872q17.32,30.474,54.59,30.474,27.624,0,44.725-17.758t24.555-48.452a363.269,363.269,0,0,0,9.427-64.895q1.973-34.2,1.973-93.834ZM1322.884,0h-270.54V-42.094h15.347q32.447,0,46.917-5.262t17.978-16.881q3.508-11.62,3.508-39.244V-190.3H925.624v-56.563l257.824-343.327h59.194v349.466h80.241V-190.3h-80.241v86.818q0,28.5,4.385,41t17.758,16.443q13.373,3.946,43.628,3.946h14.47ZM1136.093-240.724V-459.962L972.541-240.724Z" transform="translate(-27.624 590.189)" fill="url(#linear-gradient)"/>
</svg>
