<svg xmlns="http://www.w3.org/2000/svg" width="19.99" height="20" viewBox="0 0 19.99 20">
  <path id="profile" d="M1.562,20H0v-.7a51.707,51.707,0,0,1,.432-6.851A28.655,28.655,0,0,1,1.447,7.726,14.909,14.909,0,0,1,3.621,3.259,7.814,7.814,0,0,1,12.315.336a7.721,7.721,0,0,1,4.272,3.226,15.085,15.085,0,0,1,2,4.315,35.664,35.664,0,0,1,1.325,8.5c.027.519.052,1.038.078,1.557V20H18.429a8.437,8.437,0,0,0-2.873-6.344c-.11.214-.2.411-.306.59A2.936,2.936,0,0,1,13.5,15.462c-.578.173-1.17.3-1.746.478a1.149,1.149,0,0,0-.973,1.252.5.5,0,0,1-.015.064H9.221c0-.047-.008-.085-.009-.122a1.129,1.129,0,0,0-.841-1.154c-.123-.041-.246-.086-.371-.119-.439-.117-.88-.227-1.319-.344a2.94,2.94,0,0,1-2.218-1.827s-.012,0-.045-.018A8.416,8.416,0,0,0,1.562,20ZM5.848,6.422A4.183,4.183,0,0,0,9.327,9.953a4.229,4.229,0,0,0,4.616-2.7A4.179,4.179,0,0,0,12.579,2.48,8.763,8.763,0,0,1,9.584,5.075,13.573,13.573,0,0,1,5.848,6.422Zm4.145,8.757a4.242,4.242,0,0,1,1.983-.93c.459-.115.917-.244,1.364-.4a1.115,1.115,0,0,0,.782-1.021.221.221,0,0,0-.137-.26A8.36,8.36,0,0,0,6,12.577a.22.22,0,0,0-.127.263,1.126,1.126,0,0,0,.807,1.024c.4.14.819.251,1.234.356A4.344,4.344,0,0,1,9.993,15.179ZM6.711,10.552A5.909,5.909,0,0,1,4.217,5.2,23.193,23.193,0,0,0,1.81,14.223,10.236,10.236,0,0,1,6.711,10.552ZM15.773,5.2a5.907,5.907,0,0,1-2.49,5.352,10.242,10.242,0,0,1,4.9,3.673A23.161,23.161,0,0,0,15.773,5.2ZM5.907,4.788c1.785-.225,4.746-1.95,5.242-3.048A4.208,4.208,0,0,0,5.907,4.788Z" transform="translate(0 0)" fill="#7a4e4f"/>
</svg>
