<svg xmlns="http://www.w3.org/2000/svg" width="20" height="20" viewBox="0 0 20 20">
  <path id="bag" d="M19.978,17.328,18.771,8.789h-2.95V7.148a3.047,3.047,0,0,0-6.094,0V8.789h-3.1L5.378,17.317A2.344,2.344,0,0,0,7.7,20h9.96a2.344,2.344,0,0,0,2.321-2.672ZM11.29,7.148a1.484,1.484,0,0,1,2.969,0V8.789H11.29Zm6.957,11.02a.77.77,0,0,1-.59.269H7.7a.781.781,0,0,1-.773-.894l1.052-7.191H9.727v1.563H11.29V10.352h2.969v1.563h1.563V10.352h1.593l1.017,7.2A.77.77,0,0,1,18.247,18.168ZM5.2,7.227V5.664H3.517L1.57,17.556a.781.781,0,0,0,.775.881H3.869A3.9,3.9,0,0,0,4.572,20H2.345A2.344,2.344,0,0,1,.021,17.356L2.143,4.1H5.2V3.047a3.046,3.046,0,0,1,6.082-.258,4.611,4.611,0,0,0-1.551.9V3.047a1.484,1.484,0,0,0-2.969,0V4.1h2.56A4.612,4.612,0,0,0,8.41,5.664H6.759V7.227Zm0,0" transform="translate(-0.001)" fill="#7a4e4f"/>
</svg>
