<svg xmlns="http://www.w3.org/2000/svg" width="30.398" height="30.398" viewBox="0 0 30.398 30.398">
  <path id="ClockLegacy" d="M127.049,254.1a14.813,14.813,0,0,1-4.006-.537,15.081,15.081,0,0,1-10.506-10.506,15.2,15.2,0,0,1,0-8.012,15.081,15.081,0,0,1,10.506-10.506,15.2,15.2,0,0,1,8.012,0,15.081,15.081,0,0,1,10.506,10.506,15.2,15.2,0,0,1,0,8.012,15.081,15.081,0,0,1-10.506,10.506A14.812,14.812,0,0,1,127.049,254.1Zm0-27.948a12.463,12.463,0,0,0-5.014,1.016,13.043,13.043,0,0,0-6.869,6.869,12.876,12.876,0,0,0,0,10.027,13.043,13.043,0,0,0,6.869,6.87,12.876,12.876,0,0,0,10.027,0,13.043,13.043,0,0,0,6.87-6.87,12.876,12.876,0,0,0,0-10.027,13.043,13.043,0,0,0-6.87-6.869A12.463,12.463,0,0,0,127.049,226.15Zm0,12.9v-8.6H124.9V241.2h8.6v-2.15Z" transform="translate(-111.85 -223.85)" fill="#7a4e4f" stroke="#7a4e4f" stroke-width="0.3"/>
</svg>
