<svg xmlns="http://www.w3.org/2000/svg" width="20.3" height="20.3" viewBox="0 0 20.3 20.3">
  <path id="ClockLegacy" d="M122,244a9.844,9.844,0,0,1-2.662-.357,10.021,10.021,0,0,1-6.981-6.981,10.1,10.1,0,0,1,0-5.324,10.021,10.021,0,0,1,6.981-6.981,10.1,10.1,0,0,1,5.324,0,10.021,10.021,0,0,1,6.981,6.981,10.1,10.1,0,0,1,0,5.324,10.021,10.021,0,0,1-6.981,6.981A9.844,9.844,0,0,1,122,244Zm0-18.571a8.282,8.282,0,0,0-3.331.675,8.667,8.667,0,0,0-4.565,4.565,8.556,8.556,0,0,0,0,6.663,8.667,8.667,0,0,0,4.565,4.565,8.556,8.556,0,0,0,6.663,0,8.667,8.667,0,0,0,4.565-4.565,8.556,8.556,0,0,0,0-6.663,8.667,8.667,0,0,0-4.565-4.565A8.282,8.282,0,0,0,122,225.429ZM122,234v-5.714h-1.429v7.143h5.714V234Z" transform="translate(-111.85 -223.85)" fill="#7a4e4f" stroke="#7a4e4f" stroke-width="0.3"/>
</svg>
