<svg xmlns="http://www.w3.org/2000/svg" width="20.654" height="20.654" viewBox="0 0 20.654 20.654">
  <g id="shopping" transform="translate(0.203 0.15)">
    <g id="Сгруппировать_83" data-name="Сгруппировать 83" transform="translate(0)">
      <g id="Сгруппировать_82" data-name="Сгруппировать 82" transform="translate(0)">
        <path id="Контур_107" data-name="Контур 107" d="M19.575,0H11.6a.725.725,0,0,0-.513.212L.212,11.088a.725.725,0,0,0,0,1.025l7.975,7.975a.725.725,0,0,0,1.025,0L20.088,9.213A.725.725,0,0,0,20.3,8.7V.725A.725.725,0,0,0,19.575,0ZM18.85,8.4,8.7,18.551,1.75,11.6,11.9,1.45h6.95Z" transform="translate(0)" fill="#7a4e4f" stroke="#7a4e4f" stroke-width="0.3"/>
      </g>
    </g>
    <g id="Сгруппировать_85" data-name="Сгруппировать 85" transform="translate(13.05 2.9)">
      <g id="Сгруппировать_84" data-name="Сгруппировать 84">
        <path id="Контур_108" data-name="Контур 108" d="M309.371,68.267a2.175,2.175,0,1,0,2.175,2.175A2.175,2.175,0,0,0,309.371,68.267Zm0,2.9a.725.725,0,1,1,.725-.725A.725.725,0,0,1,309.371,71.167Z" transform="translate(-307.196 -68.267)" fill="#7a4e4f" stroke="#7a4e4f" stroke-width="0.3"/>
      </g>
    </g>
  </g>
</svg>
