<svg id="eye_1_" data-name="eye (1)" xmlns="http://www.w3.org/2000/svg" width="25.263" height="16.102" viewBox="0 0 25.263 16.102">
  <g id="Сгруппировать_110" data-name="Сгруппировать 110" transform="translate(0 0)">
    <g id="Сгруппировать_109" data-name="Сгруппировать 109">
      <path id="Контур_113" data-name="Контур 113" d="M25.1,100.394c-.226-.309-5.6-7.559-12.471-7.559S.386,100.086.16,100.394a.834.834,0,0,0,0,.983c.225.309,5.6,7.559,12.471,7.559s12.245-7.251,12.471-7.559A.833.833,0,0,0,25.1,100.394Zm-12.471,6.876c-5.059,0-9.44-4.812-10.738-6.386,1.3-1.575,5.668-6.385,10.738-6.385s9.44,4.812,10.738,6.386C22.073,102.461,17.7,107.271,12.631,107.271Z" transform="translate(0 -92.835)" fill="#7a4e4f"/>
    </g>
  </g>
  <g id="Сгруппировать_112" data-name="Сгруппировать 112" transform="translate(7.634 3.054)">
    <g id="Сгруппировать_111" data-name="Сгруппировать 111" transform="translate(0 0)">
      <path id="Контур_114" data-name="Контур 114" d="M159.719,154.725a5,5,0,1,0,5,5A5,5,0,0,0,159.719,154.725Zm0,8.328a3.331,3.331,0,1,1,3.331-3.331A3.335,3.335,0,0,1,159.719,163.053Z" transform="translate(-154.722 -154.725)" fill="#7a4e4f"/>
    </g>
  </g>
</svg>
