<svg id="фб" xmlns="http://www.w3.org/2000/svg" width="10.923" height="20" viewBox="0 0 10.923 20">
  <path id="Capa_1" data-name="Capa 1" d="M6.72,20H3.079a.767.767,0,0,1-.767-.767V11.585H.767A.767.767,0,0,1,0,10.818V7.407a.767.767,0,0,1,.767-.767H2.312V5.9a.758.758,0,0,1,.008-.109V4.925A4.931,4.931,0,0,1,7.245,0H9.627a1.291,1.291,0,0,1,1.29,1.29V4.262a.767.767,0,0,1-.767.767H9.366a4.524,4.524,0,0,0-1.644.144c-.087.057-.232.294-.232,1.251v.217h2.667a.767.767,0,0,1,.758.88L10.4,10.932a.767.767,0,0,1-.758.653H7.486v7.648A.767.767,0,0,1,6.72,20ZM3.845,18.467H5.953V10.818a.767.767,0,0,1,.767-.767H8.986l.282-1.878H6.723a.767.767,0,0,1-.767-.767V6.423a2.789,2.789,0,0,1,.927-2.534A4.529,4.529,0,0,1,9.367,3.5h.017V1.533H7.245A3.4,3.4,0,0,0,3.853,4.925V5.9A.756.756,0,0,1,3.845,6v1.4a.767.767,0,0,1-.767.767H1.533v1.878H3.079a.767.767,0,0,1,.767.767Z" fill="#7a4e4f"/>
</svg>
