<svg id="Сгруппировать_69" data-name="Сгруппировать 69" xmlns="http://www.w3.org/2000/svg" width="12.68" height="12.014" viewBox="0 0 12.68 12.014">
  <path id="Контур_22" data-name="Контур 22" d="M6.062,12.014A6.045,6.045,0,0,1,0,5.771,6.4,6.4,0,0,1,1.972,1.543,5.818,5.818,0,0,1,6.59.049S5.332.414,5.128.941a1.533,1.533,0,0,1,.9,1.193,1.984,1.984,0,0,1-.413,1.452A2.333,2.333,0,0,0,3.331,2.274,2.358,2.358,0,0,0,1.123,3.9C.3,5.984,1.94,9.551,4.614,9.645c1.505.054,1.909-.842,3.018-.9.985-.054,1.445.441,1.714.068a3.462,3.462,0,0,0,.381-2.057c-.144-.208-.344.031-.523.168A6.789,6.789,0,0,1,6.138,8.227a13.075,13.075,0,0,0-1.39.169,2.47,2.47,0,0,1-.865.215,9.623,9.623,0,0,1-1.154-.4.192.192,0,0,1,.223.006c-.118-.024-.138-.12-.058-.116a1.348,1.348,0,0,1,.433.119c-.1-.062-.179-.157-.245-.194s.079-.043.09-.037a3.276,3.276,0,0,1,.3.149,1.943,1.943,0,0,0-.157-.157c-.039-.037-.006-.07.349.1.273.128.281-.116.219-.113a.479.479,0,0,1-.44-.309,2.018,2.018,0,0,0,.5.105c.23.01.351-.09.588-.031a.861.861,0,0,0,.752.011,10.356,10.356,0,0,0,.989-.5,6.2,6.2,0,0,1,.847-.25,5.711,5.711,0,0,0,1.367-.944A2.573,2.573,0,0,1,10.43,4.912c.072,0,.259-.477,0-.606a3.883,3.883,0,0,1-.527.387,2.915,2.915,0,0,1-1.147.437c-2.32,2.459-5.795,2.387-6.712.895a1.783,1.783,0,0,1,1.3-2.805A.878.878,0,0,1,4.3,3.9a.841.841,0,0,0-.4-.174.925.925,0,0,0-.83.265c-.641.735.05,2.088,1.832,1.406.8-.306,1.379-1.36,2.609-2.267a.88.88,0,0,1,.747-.151s.772-1.247,1.5-1.436c1.461-.38,1.3.311,1.3.311a.864.864,0,0,1,.364.454c.087.186.044.269.2.417a.389.389,0,0,0,.3.147c.075-.014.105-.02.128.011s-.02.1-.049.181c0,.006-.015.065.023.092s.068.006.087.031c.069.1-.064.185-.064.185s.085-.028.122.03-.039.134-.055.166c-.04.084.221.157.157.337-.079.207-.472.157-.542.3a1.675,1.675,0,0,0,0,1.246c.052.089.135.012.171.123.026.079.025.437.1.694.094.346.393.357.621.8.019.036.052.038.064.083s-.02.066-.026.1a.815.815,0,0,1-.882.679s-.147.339-.372.811a6.092,6.092,0,0,1-5.335,3.285" transform="translate(0 -0.003)" fill="#989898"/>
</svg>
