<svg xmlns="http://www.w3.org/2000/svg" width="30.421" height="30.334" viewBox="0 0 30.421 30.334">
  <g id="Сгруппировать_48" data-name="Сгруппировать 48" transform="translate(-582.85 -1820.85)">
    <g id="Слой_2" data-name="Слой 2" transform="translate(583 1821)" opacity="0.7">
      <g id="Слой_1" data-name="Слой 1">
        <path id="Контур_79" data-name="Контур 79" d="M23.912,4.013c-.531-.178-.821-.4-.9-.854V0H0V25.482c2.8-.01,5.609-.034,8.414-.018a3.9,3.9,0,0,1,1.251.3c3.571,1.3,7.137,2.611,10.706,3.914.307.113.626.2,1.019.319L30.079,6.225C27.98,5.466,25.958,4.7,23.912,4.013Zm-3.937,23-3.733-1.34a1.981,1.981,0,0,1,.026-.2h4.237Zm.605-3.991H2.433v-2.28H20.581Zm.028-4.752H2.421V2.464H20.609Zm2.512-.012V6.217L27.07,7.629c-1.255,3.43-2.462,6.751-3.67,10.065-.054.123-.125.234-.289.567Z" fill="#fff" stroke="#3f94ac" stroke-width="0.3"/>
      </g>
    </g>
    <path id="heart_chat" data-name="heart chat" d="M11.233,5.035a2.533,2.533,0,0,0-1.74.619,2.533,2.533,0,0,0-1.74-.619,2.4,2.4,0,0,0-1.726.7,2.589,2.589,0,0,0-.711,1.842c0,2.212,3.441,4.238,3.587,4.323l.242.14.348.2.348-.2.241-.14c.146-.085,3.587-2.111,3.587-4.323a2.589,2.589,0,0,0-.711-1.842A2.4,2.4,0,0,0,11.233,5.035Zm-1.74,5.6c-1.163-.7-2.784-2.1-2.784-3.054A1.032,1.032,0,0,1,7.743,6.428C8.6,6.437,9.5,8.1,9.5,8.1a6.347,6.347,0,0,1,.689-1.009h0v0l0-.011a1.64,1.64,0,0,1,.976-.654h.066a1.032,1.032,0,0,1,1.044,1.151C12.278,8.528,10.656,9.929,9.493,10.633Z" transform="translate(585 1823.387)" fill="#fff"/>
  </g>
</svg>
