<svg xmlns="http://www.w3.org/2000/svg" width="19.988" height="20" viewBox="0 0 19.988 20">
  <g id="Слой_2" data-name="Слой 2" transform="translate(0.002 -0.002)">
    <g id="Слой_1" data-name="Слой 1" transform="translate(-0.002 0.002)">
      <path id="Контур_69" data-name="Контур 69" d="M7.491,20H5.929V16.917c-.638,0-1.249,0-1.86,0a2.348,2.348,0,0,1-2.357-2.375V12.364c-.144-.019-.266-.029-.386-.052a1.641,1.641,0,0,1-1-2.584C.926,8.921,1.528,8.114,2.14,7.312a3.043,3.043,0,0,0,.518-1.038A9.518,9.518,0,0,1,3.988,3.4,7.523,7.523,0,0,1,9.191.116,11.2,11.2,0,0,1,12.9.208a8.36,8.36,0,0,1,4.323,2.058,8.733,8.733,0,0,1,2.644,5.426c.049.352.078.709.119,1.063V20H18.423V9.539a10.606,10.606,0,0,0-.357-2.895,6.379,6.379,0,0,0-3.77-4.4A9.346,9.346,0,0,0,10.016,1.6,5.99,5.99,0,0,0,6.679,2.812c-.043.033-.081.071-.13.115l.181.113A7.463,7.463,0,0,1,8.645,4.686a8.757,8.757,0,0,1,1.961,5.654c.027,3.221.008,6.442.008,9.662H9.053c0-3.085.008-6.169-.008-9.254a10.736,10.736,0,0,0-.158-1.881,6.459,6.459,0,0,0-2.6-4.246c-.271-.2-.568-.352-.848-.525A8.036,8.036,0,0,0,4.143,6.763a4.272,4.272,0,0,1-.728,1.454c-.592.775-1.176,1.557-1.76,2.338a.822.822,0,0,0-.078.183.978.978,0,0,0,.2.045c.358,0,.715,0,1.073,0h.426v3.7a.791.791,0,0,0,.873.868H7.491Z" transform="translate(0.002 -0.002)" fill="#c7c7c7"/>
      <path id="Контур_70" data-name="Контур 70" d="M311.33,228.625V217.11h1.563v11.514Zm3.126,0V217.11h1.563v11.515Z" transform="translate(-299.153 -208.625)" fill="#c7c7c7"/>
    </g>
  </g>
</svg>
