<svg id="Компонент_4_1" data-name="Компонент 4 – 1" xmlns="http://www.w3.org/2000/svg" width="36.113" height="17.999" viewBox="0 0 36.113 17.999">
  <path id="Объединение_9" data-name="Объединение 9" d="M-9193-2344.944a9,9,0,0,1-8.2-5.277q-.125-.127-.24-.261l-3.676-3.463,3.676-3.458q.114-.133.237-.259a9,9,0,0,1,8.2-5.281h15a9,9,0,0,1,9,9,9,9,0,0,1-9,9Z" transform="translate(9205.112 2362.943)" fill="#d8eaee"/>
  <path id="Контур_67" data-name="Контур 67" d="M-4.66,0H-5.79L-9.27-4.76V0h-1.17V-6.67h1.2l3.41,4.63V-6.67h1.17ZM1.48,0H-3.09V-6.67H1.48v1.03h-3.4v1.73H1.41v1.03H-1.92v1.85h3.4Zm7.7,0H7.93L6.63-4.92,5.34,0H4.09L2.18-6.67H3.49l1.3,5.14L6.17-6.67H7.1L8.48-1.53,9.77-6.67h1.31Z" transform="translate(19.553 12.669)" fill="#3f94ac"/>
</svg>
