<svg xmlns="http://www.w3.org/2000/svg" width="24.229" height="30.239" viewBox="0 0 24.229 30.239">
  <g id="адрес" transform="translate(-50.885)">
    <path id="Контур_71" data-name="Контур 71" d="M166.561,110.062a5.614,5.614,0,1,0,5.614,5.614A5.62,5.62,0,0,0,166.561,110.062Zm0,8.864a3.25,3.25,0,1,1,3.25-3.25A3.254,3.254,0,0,1,166.561,118.926Z" transform="translate(-103.562 -103.562)" fill="#7a4e4f"/>
    <path id="Контур_72" data-name="Контур 72" d="M63,0A12.128,12.128,0,0,0,50.885,12.114v.335c0,3.378,1.937,7.315,5.757,11.7a49.8,49.8,0,0,0,5.615,5.489l.743.6.743-.6a49.788,49.788,0,0,0,5.615-5.489c3.82-4.386,5.757-8.322,5.757-11.7v-.335A12.128,12.128,0,0,0,63,0ZM72.75,12.449c0,5.709-7.356,12.62-9.751,14.718-2.4-2.1-9.751-9.009-9.751-14.718v-.335a9.751,9.751,0,1,1,19.5,0Z" transform="translate(0)" fill="#7a4e4f"/>
  </g>
</svg>
