<svg xmlns="http://www.w3.org/2000/svg" width="16.065" height="20.051" viewBox="0 0 16.065 20.051">
  <g id="адрес" transform="translate(-50.885)">
    <path id="Контур_71" data-name="Контур 71" d="M164.669,110.062a3.722,3.722,0,1,0,3.722,3.722A3.727,3.727,0,0,0,164.669,110.062Zm0,5.878a2.155,2.155,0,1,1,2.155-2.155A2.158,2.158,0,0,1,164.669,115.94Z" transform="translate(-105.752 -105.752)" fill="#7a4e4f"/>
    <path id="Контур_72" data-name="Контур 72" d="M58.918,0a8.042,8.042,0,0,0-8.033,8.033v.222c0,2.24,1.284,4.85,3.817,7.758a33.019,33.019,0,0,0,3.723,3.64l.492.4.493-.4a33.013,33.013,0,0,0,3.723-3.64c2.533-2.908,3.817-5.518,3.817-7.758V8.033A8.042,8.042,0,0,0,58.918,0Zm6.465,8.255c0,3.786-4.878,8.368-6.465,9.759-1.588-1.392-6.465-5.974-6.465-9.759V8.033a6.465,6.465,0,1,1,12.931,0Z" transform="translate(0)" fill="#7a4e4f"/>
  </g>
</svg>
