<svg xmlns="http://www.w3.org/2000/svg" width="13.991" height="14" viewBox="0 0 13.991 14">
  <path id="loud" d="M14.491,6.974a5.837,5.837,0,0,1-1.743,4.146l-.388.384-.769-.777.388-.384a4.788,4.788,0,0,0,.035-6.763l-.384-.388.777-.769.384.388A5.838,5.838,0,0,1,14.491,6.974ZM11.335,4.252l-.384-.388-.777.769.384.389a2.736,2.736,0,0,1-.02,3.865l-.389.384.769.777.388-.384A3.83,3.83,0,0,0,11.335,4.252ZM9.781,5.79,9.4,5.4l-.777.769L9,6.559a.547.547,0,0,1,0,.773l-.388.384.769.777.388-.385A1.642,1.642,0,0,0,9.781,5.79ZM3.106,4.342,7.933,0V14L3.113,9.589H2.222A1.7,1.7,0,0,1,.5,7.949V5.982a1.7,1.7,0,0,1,1.722-1.64ZM2.222,8.5H2.8V5.435H2.222a.624.624,0,0,0-.628.547V7.949A.624.624,0,0,0,2.222,8.5ZM6.84,2.454,3.889,5.109V8.817l2.951,2.7Zm0,0" transform="translate(-0.5)" fill="#fff"/>
</svg>
