<svg xmlns="http://www.w3.org/2000/svg" xmlns:xlink="http://www.w3.org/1999/xlink" width="169.331" height="185.29" viewBox="0 0 169.331 185.29">
  <defs>
    <filter id="Контур_72" x="0" y="0" width="169.331" height="185.29" filterUnits="userSpaceOnUse">
      <feOffset dy="15" input="SourceAlpha"/>
      <feGaussianBlur stdDeviation="17.5" result="blur"/>
      <feFlood flood-color="#3f94ac" flood-opacity="0.651"/>
      <feComposite operator="in" in2="blur"/>
      <feComposite in="SourceGraphic"/>
    </filter>
  </defs>
  <g id="поинт" transform="translate(-969.5 -1253.377)">
    <g id="Эллипс_70" data-name="Эллипс 70" transform="translate(1039 1356)" fill="none" stroke="#3f94ac" stroke-width="1" opacity="0.5">
      <circle cx="15" cy="15" r="15" stroke="none"/>
      <circle cx="15" cy="15" r="14.5" fill="none"/>
    </g>
    <g id="Эллипс_71" data-name="Эллипс 71" transform="translate(1024 1341)" fill="none" stroke="#3f94ac" stroke-width="1" opacity="0.2">
      <circle cx="30" cy="30" r="30" stroke="none"/>
      <circle cx="30" cy="30" r="29.5" fill="none"/>
    </g>
    <g id="адрес" transform="translate(1022 1290.877)">
      <g transform="matrix(1, 0, 0, 1, -52.5, -37.5)" filter="url(#Контур_72)">
        <path id="Контур_72-2" data-name="Контур 72" d="M83.05,0A32.2,32.2,0,0,0,50.885,32.165v.889c0,8.97,5.143,19.423,15.285,31.067A132.217,132.217,0,0,0,81.078,78.7L83.05,80.29,85.022,78.7A132.193,132.193,0,0,0,99.93,64.122c10.143-11.645,15.285-22.1,15.285-31.067v-.889A32.2,32.2,0,0,0,83.05,0Z" transform="translate(1.61 37.5)" fill="#3f94ac"/>
      </g>
    </g>
    <g id="Эллипс_75" data-name="Эллипс 75" transform="translate(1009 1326)" fill="none" stroke="#3f94ac" stroke-width="1" opacity="0.1">
      <circle cx="45" cy="45" r="45" stroke="none"/>
      <circle cx="45" cy="45" r="44.5" fill="none"/>
    </g>
    <g id="Сгруппировать_76" data-name="Сгруппировать 76" transform="translate(1035.36 1305.415)">
      <path id="Контур_22" data-name="Контур 22" d="M17.954,35.577C8.106,35.691,0,27.773,0,17.086A18.941,18.941,0,0,1,5.84,4.563,17.232,17.232,0,0,1,19.52.138s-3.727,1.081-4.333,2.641a4.541,4.541,0,0,1,2.655,3.534,5.877,5.877,0,0,1-1.223,4.3s-1.53-3.937-6.755-3.885a6.983,6.983,0,0,0-6.538,4.829c-2.429,6.161,2.42,16.725,10.34,17,4.458.161,5.653-2.495,8.94-2.674,2.919-.161,4.279,1.307,5.078.2.932-1.29,1.6-5.418,1.13-6.091-.426-.615-1.02.093-1.549.5a20.109,20.109,0,0,1-9.084,3.867,38.725,38.725,0,0,0-4.118.5A7.317,7.317,0,0,1,11.5,25.5a28.5,28.5,0,0,1-3.417-1.186.569.569,0,0,1,.662.019c-.349-.07-.41-.354-.172-.345a3.992,3.992,0,0,1,1.281.352c-.3-.184-.531-.466-.727-.575-.233-.142.233-.128.266-.109a9.7,9.7,0,0,1,.9.443,5.756,5.756,0,0,0-.466-.466c-.116-.109-.016-.207,1.034.287.808.38.832-.342.65-.335a1.419,1.419,0,0,1-1.3-.915,5.977,5.977,0,0,0,1.47.312c.682.03,1.039-.268,1.742-.091a2.551,2.551,0,0,0,2.227.033,30.675,30.675,0,0,0,2.93-1.491,18.378,18.378,0,0,1,2.509-.741c.855-.175,3.615-2.329,4.048-2.8.745-.82,2.763-3.529,5.758-3.352.212.014.766-1.414,0-1.8a11.5,11.5,0,0,1-1.561,1.146,8.635,8.635,0,0,1-3.4,1.3c-6.872,7.284-17.163,7.07-19.879,2.651C3.6,13.83,6.466,9.567,9.909,9.53a2.6,2.6,0,0,1,2.842,2,2.492,2.492,0,0,0-1.2-.515,2.739,2.739,0,0,0-2.46.785c-1.9,2.178.147,6.184,5.425,4.165,2.364-.906,4.083-4.027,7.729-6.713a2.607,2.607,0,0,1,2.213-.447s2.287-3.692,4.451-4.253c4.328-1.125,3.843.92,3.843.92a2.559,2.559,0,0,1,1.078,1.344c.256.552.13.8.58,1.235a1.152,1.152,0,0,0,.883.436c.224-.042.312-.061.38.033.1.137-.061.291-.144.536,0,.016-.044.193.068.273s.2.019.256.093c.2.284-.191.547-.191.547s.252-.082.361.089c.135.214-.116.4-.163.491-.119.249.655.466.466,1-.233.613-1.4.466-1.6.887a4.961,4.961,0,0,0,0,3.69c.154.263.4.035.508.363.077.233.075,1.3.284,2.057.28,1.025,1.165,1.058,1.84,2.362.056.107.154.112.191.247s-.058.2-.077.3a2.413,2.413,0,0,1-2.611,2.01s-.436,1-1.1,2.4a18.044,18.044,0,0,1-15.8,9.73" transform="translate(0 -0.003)" fill="#fff"/>
    </g>
  </g>
</svg>
