<svg xmlns="http://www.w3.org/2000/svg" width="17.448" height="14.5" viewBox="0 0 17.448 14.5">
  <g id="Сгруппировать_77" data-name="Сгруппировать 77" transform="translate(-142.52 -162.212)">
    <g id="Сгруппировать_81" data-name="Сгруппировать 81" transform="translate(142.77 162.462)">
      <path id="Контур_106" data-name="Контур 106" d="M158.612,162.462h-4.421a1.105,1.105,0,0,0-.827.372l-2.121,2.39-2.121-2.39a1.1,1.1,0,0,0-.827-.372h-4.421a1.105,1.105,0,0,0-1.105,1.105v11.789a1.105,1.105,0,0,0,1.105,1.105h2.947a1.105,1.105,0,0,0,1.105-1.105v-5.644l2.5,2.71a1.105,1.105,0,0,0,1.624,0l2.5-2.71v5.644a1.105,1.105,0,0,0,1.105,1.105h2.947a1.105,1.105,0,0,0,1.105-1.105V163.567A1.105,1.105,0,0,0,158.612,162.462Zm-1.105,11.79h-.737v-7.363a1.105,1.105,0,0,0-1.917-.75l-3.609,3.906-3.609-3.906a1.105,1.105,0,0,0-1.917.75v7.363h-.737v-9.579H147.8l2.618,2.949a1.105,1.105,0,0,0,1.653,0l2.618-2.949h2.819Z" transform="translate(-142.77 -162.462)" fill="#7a4d4f" stroke="#fff" stroke-width="0.5"/>
    </g>
  </g>
</svg>
