<svg xmlns="http://www.w3.org/2000/svg" width="30.231" height="30.239" viewBox="0 0 30.231 30.239">
  <path id="телефон" d="M28.831,3.948,24.87,0,16.643,8.213l3.189,3.294a22.494,22.494,0,0,1-3.671,4.743A22.849,22.849,0,0,1,11.4,19.943L8.166,16.755.068,24.8l3.94,3.966a4.989,4.989,0,0,0,5.7.971,43.778,43.778,0,0,0,11.684-8.408A43.781,43.781,0,0,0,29.8,9.65a4.942,4.942,0,0,0,.5-2.162A5.006,5.006,0,0,0,28.831,3.948ZM27.679,8.618a41.392,41.392,0,0,1-7.954,11.047A41.39,41.39,0,0,1,8.679,27.619a2.626,2.626,0,0,1-3-.514L3.406,24.815l4.767-4.738,2.751,2.716.736-.328a22.851,22.851,0,0,0,6.171-4.546,22.445,22.445,0,0,0,4.521-6.148l.319-.726-2.715-2.8,4.915-4.907,2.292,2.284A2.628,2.628,0,0,1,27.679,8.618Z" transform="translate(-0.068)" fill="#7a4e4f"/>
</svg>
