<svg xmlns="http://www.w3.org/2000/svg" width="19.994" height="20" viewBox="0 0 19.994 20">
  <path id="телефон" d="M19.092,2.611,16.472,0,11.03,5.432,13.14,7.611a14.878,14.878,0,0,1-2.428,3.137A15.112,15.112,0,0,1,7.56,13.19L5.424,11.081.068,16.406l2.606,2.623a3.3,3.3,0,0,0,3.771.642,28.954,28.954,0,0,0,7.728-5.561,28.956,28.956,0,0,0,5.561-7.728,3.269,3.269,0,0,0,.329-1.43A3.311,3.311,0,0,0,19.092,2.611ZM18.33,5.7a27.376,27.376,0,0,1-5.261,7.306,27.375,27.375,0,0,1-7.306,5.261,1.737,1.737,0,0,1-1.983-.34l-1.5-1.514,3.153-3.134,1.819,1.8.487-.217a15.113,15.113,0,0,0,4.082-3.007,14.845,14.845,0,0,0,2.99-4.066l.211-.48-1.8-1.854,3.251-3.246,1.516,1.511A1.738,1.738,0,0,1,18.33,5.7Z" transform="translate(-0.068)" fill="#7a4e4f"/>
</svg>
