<svg xmlns="http://www.w3.org/2000/svg" width="18.61" height="20.4" viewBox="0 0 18.61 20.4">
  <g id="Слой_2" data-name="Слой 2" transform="translate(0.198 0.2)">
    <g id="Слой_1" data-name="Слой 1" transform="translate(0.003)">
      <path id="Контур_96" data-name="Контур 96" d="M1.477,20,.414,12.143C.283,11.175.12,10.211.031,9.24A5.318,5.318,0,0,1,2.243,4.308a2.464,2.464,0,0,1,.423-.28A.312.312,0,0,0,2.85,3.69c-.007-1.225,0-2.449,0-3.69H8.012V.219c0,1.173,0,2.346,0,3.518A.266.266,0,0,0,8.16,4a5.322,5.322,0,0,1,2.669,5.3c0,.026,0,.052,0,.1h6.134v.226c0,.862-.005,1.72.005,2.58a.765.765,0,0,0,.117.392,6.071,6.071,0,0,1,1.124,3.534A6.141,6.141,0,0,1,16.965,19.6l-.28.4Zm10.556-6.785-3.849,0a.281.281,0,0,0-.262.122,4.642,4.642,0,0,0,.015,5.376.33.33,0,0,0,.222.108c.235.014.47.005.7.005q3.517,0,7.034,0a.318.318,0,0,0,.233-.083,4.811,4.811,0,0,0,.907-2.577,4.781,4.781,0,0,0-.829-2.76.354.354,0,0,0-.343-.19C14.586,13.218,13.31,13.215,12.033,13.215ZM9.605,9.4a.277.277,0,0,0,.029-.043A4.209,4.209,0,0,0,7.406,4.925a.57.57,0,0,0-.242-.053c-1.036,0-2.073.018-3.108-.013A1.59,1.59,0,0,0,3,5.214l-.157.117A4.091,4.091,0,0,0,1.2,9c.125,1.379.355,2.749.54,4.123q.282,2.09.566,4.18c.068.5.137,1,.206,1.509H6.54l-.654-1.971a2.6,2.6,0,0,1-2.593-1.519c-.062-.107-.123-.215-.174-.327a7.66,7.66,0,0,1-.326-5.415,4.323,4.323,0,0,1,1.24-2.089,2.115,2.115,0,0,1,1.811-.587,2.427,2.427,0,0,1,1.438.839,4.788,4.788,0,0,1,.876,1.512c.023.058.092.139.142.141.435.011.872.006,1.3.006Zm-2.461,1.75h0c0-.293.009-.587,0-.878a2.676,2.676,0,0,0-1.01-1.987.9.9,0,0,0-1.217,0,2.293,2.293,0,0,0-.7.9,6.387,6.387,0,0,0-.082,5.189,2.408,2.408,0,0,0,.816,1.1.909.909,0,0,0,.752.188.249.249,0,0,0,.226-.246,5.74,5.74,0,0,1,1.136-2.906.426.426,0,0,0,.078-.229c0-.375,0-.753,0-1.131Zm1.193-.571v1.44h7.433v-1.44ZM4.031,3.675H6.82v-2.5H4.031Z" transform="translate(-0.003)" fill="#c7c7c7" stroke="#c7c7c7" stroke-width="0.4"/>
    </g>
  </g>
</svg>
