<svg xmlns="http://www.w3.org/2000/svg" width="21.364" height="21.334" viewBox="0 0 21.364 21.334">
  <path id="share-alt" d="M18.773,14.581a4.193,4.193,0,0,0-3.229,1.551L10.2,13.669a3.816,3.816,0,0,0,0-2.369l5.346-2.463a4.193,4.193,0,1,0-.964-2.642,4.371,4.371,0,0,0,.073.744L9.118,9.486a4.193,4.193,0,1,0,0,6l5.535,2.547a4.371,4.371,0,0,0-.073.744,4.193,4.193,0,1,0,4.193-4.193Zm0-10.483a2.1,2.1,0,1,1-2.1,2.1A2.1,2.1,0,0,1,18.773,4.1ZM6.193,14.581a2.1,2.1,0,1,1,2.1-2.1A2.1,2.1,0,0,1,6.193,14.581Zm12.579,6.29a2.1,2.1,0,1,1,2.1-2.1A2.1,2.1,0,0,1,18.773,20.871Z" transform="translate(-1.844 -1.783)" fill="#7a4e4f" stroke="#fff" stroke-width="0.3"/>
</svg>
