<svg xmlns="http://www.w3.org/2000/svg" width="24.303" height="15.3" viewBox="0 0 24.303 15.3">
  <path id="social-media" d="M12.145,19.5c3.472,0,2.234-2.2,2.5-2.83,0-.472-.008-.926.008-1.2a5.329,5.329,0,0,1,1.811,1.367c1.655,1.67,2.078,2.665,3.415,2.665h2.461a1.624,1.624,0,0,0,1.389-.594,1.553,1.553,0,0,0,.178-1.438c-.549-1.724-3.751-4.7-3.95-5.015.03-.058.078-.135.1-.175h0c.632-.835,3.044-4.449,3.4-5.895a.019.019,0,0,0,0-.008,1.442,1.442,0,0,0-.166-1.33A1.529,1.529,0,0,0,22,4.5H19.535A1.812,1.812,0,0,0,17.77,5.672a17.374,17.374,0,0,1-3.129,5.09c-.034-1.387-.011-2.446.007-3.233C14.684,5.994,14.8,4.5,13.207,4.5H9.339A1.358,1.358,0,0,0,8.42,6.884c.9,1.134.325,1.766.52,4.912A18.4,18.4,0,0,1,5.872,5.967,1.8,1.8,0,0,0,4.055,4.5H1.594A1.4,1.4,0,0,0,0,5.956C0,8,4.529,19.5,12.145,19.5ZM4.055,6c.217,0,.239,0,.4.457.979,2.883,3.175,7.149,4.779,7.149,1.2,0,1.2-1.235,1.2-1.7v-3.7A3.537,3.537,0,0,0,9.633,6l3.508,0c0,.017-.02,4.095.01,5.083,0,1.4,1.114,2.207,2.853.447a21.378,21.378,0,0,0,3.155-5.293c.075-.18.14-.241.376-.241h2.471s0,.006,0,.009c-.225,1.05-2.446,4.4-3.189,5.435-.012.016-.023.033-.034.05a1.494,1.494,0,0,0,.045,1.954h0c.058.07.209.234.429.462.684.706,3.03,3.12,3.238,4.08-.138.022-.288.006-2.613.011-.5,0-.882-.74-2.359-2.23-1.328-1.292-2.19-1.82-2.975-1.82-1.524,0-1.413,1.237-1.4,2.733.005,1.622-.005,1.109.006,1.211a3.014,3.014,0,0,1-1.009.1C5.8,18,1.668,7.929,1.509,6,1.564,6,2.321,6,4.055,6Z" transform="translate(0.15 -4.35)" fill="#7a4e4f" stroke="#7a4e4f" stroke-width="0.3"/>
</svg>
