<svg id="whatsapp" xmlns="http://www.w3.org/2000/svg" width="19.981" height="20" viewBox="0 0 19.981 20">
  <path id="Контур_49" data-name="Контур 49" d="M17.028,2.9a10,10,0,0,0-14.087,0A9.812,9.812,0,0,0,0,9.907v0a9.862,9.862,0,0,0,1.217,4.681L.027,20,5.5,18.756a10.011,10.011,0,0,0,4.49,1.067h0a9.964,9.964,0,0,0,7.048-2.9A9.805,9.805,0,0,0,17.028,2.9ZM9.99,18.262h0a8.437,8.437,0,0,1-4.01-1.017l-.259-.14-3.637.827.79-3.59-.152-.263A8.344,8.344,0,0,1,1.561,9.911a8.426,8.426,0,0,1,14.366-5.9,8.3,8.3,0,0,1,2.493,5.9A8.4,8.4,0,0,1,9.99,18.262Zm0,0" fill="#fff"/>
  <path id="Контур_50" data-name="Контур 50" d="M140.714,141.863h-.438a.841.841,0,0,0-.609.285,2.55,2.55,0,0,0-.8,1.9,4.423,4.423,0,0,0,.933,2.355,9.367,9.367,0,0,0,3.9,3.438c1.93.759,2.323.608,2.742.57a2.308,2.308,0,0,0,1.543-1.083,1.9,1.9,0,0,0,.133-1.083c-.057-.095-.21-.152-.438-.266s-1.349-.674-1.558-.75-.362-.114-.514.114-.6.754-.735.906-.267.171-.5.057a6.318,6.318,0,0,1-1.83-1.135,7,7,0,0,1-1.284-1.6c-.133-.228-.014-.351.1-.465s.241-.241.356-.374a1.54,1.54,0,0,0,.223-.38.418.418,0,0,0-.019-.4c-.057-.114-.5-1.24-.7-1.691h0C141.057,141.883,140.877,141.87,140.714,141.863Zm0,0" transform="translate(-133.443 -136.322)" fill="#fff"/>
</svg>
