<svg xmlns="http://www.w3.org/2000/svg" width="16.483" height="19.931" viewBox="0 0 16.483 19.931">
  <g id="ютуб" transform="translate(-44.245)">
    <g id="Сгруппировать_44" data-name="Сгруппировать 44" transform="translate(44.245)">
      <path id="Контур_73" data-name="Контур 73" d="M60.439,218.832a2.088,2.088,0,0,0-1.78-1.624q-2.046-.222-6.173-.222t-6.162.222a2.018,2.018,0,0,0-1.146.523,2.112,2.112,0,0,0-.645,1.1,19.275,19.275,0,0,0-.289,3.893,18.878,18.878,0,0,0,.289,3.893,2.033,2.033,0,0,0,.64,1.1,1.972,1.972,0,0,0,1.14.512,59.475,59.475,0,0,0,6.173.234,59.464,59.464,0,0,0,6.173-.234,1.946,1.946,0,0,0,1.135-.512,2.11,2.11,0,0,0,.645-1.1,19.273,19.273,0,0,0,.289-3.893A18.889,18.889,0,0,0,60.439,218.832ZM48.95,219.956H47.76v6.328H46.648v-6.328H45.48V218.91h3.47v1.045Zm3,6.328h-.99v-.6a1.628,1.628,0,0,1-1.135.679.6.6,0,0,1-.645-.412,2.752,2.752,0,0,1-.089-.812V220.79h.99v4.048a3.071,3.071,0,0,0,.011.389q.033.234.234.234.3,0,.634-.467v-4.2h.99v5.494Zm3.781-1.646a4.109,4.109,0,0,1-.1,1.112.77.77,0,0,1-.79.611,1.381,1.381,0,0,1-1.034-.611v.534h-.99V218.91h.99v2.413a1.34,1.34,0,0,1,1.034-.6.773.773,0,0,1,.79.623,3.973,3.973,0,0,1,.1,1.1Zm3.759-.912H57.5v.968q0,.767.512.767a.426.426,0,0,0,.445-.4,5.545,5.545,0,0,0,.022-.678h1.012v.145a4.924,4.924,0,0,1-.022.645,1.377,1.377,0,0,1-1.435,1.19,1.428,1.428,0,0,1-1.2-.567,2.09,2.09,0,0,1-.322-1.29V222.58a2.147,2.147,0,0,1,.311-1.29,1.521,1.521,0,0,1,2.369,0,2.205,2.205,0,0,1,.3,1.29v1.146Z" transform="translate(-44.245 -208.533)" fill="#7a4e4f"/>
      <path id="Контур_74" data-name="Контур 74" d="M290.287,336.043a.715.715,0,0,0-.5.245v3.348a.714.714,0,0,0,.5.245q.434,0,.434-.745v-2.346Q290.721,336.043,290.287,336.043Z" transform="translate(-280.222 -322.952)" fill="#7a4e4f"/>
      <path id="Контур_75" data-name="Контур 75" d="M385.081,336.043q-.5,0-.5.756v.512h1V336.8Q385.582,336.043,385.081,336.043Z" transform="translate(-371.323 -322.952)" fill="#7a4e4f"/>
      <path id="Контур_76" data-name="Контур 76" d="M113.9,4.438V7.452h1.112V4.438L116.356,0h-1.134l-.756,2.925L113.676,0H112.5q.311.934.723,2.08A18.851,18.851,0,0,1,113.9,4.438Z" transform="translate(-109.838)" fill="#7a4e4f"/>
      <path id="Контур_77" data-name="Контур 77" d="M213.327,52.8a1.368,1.368,0,0,0,1.179-.567,2.191,2.191,0,0,0,.311-1.312V48.977a2.17,2.17,0,0,0-.311-1.3,1.5,1.5,0,0,0-2.347,0,2.17,2.17,0,0,0-.311,1.3v1.946a2.223,2.223,0,0,0,.311,1.312A1.375,1.375,0,0,0,213.327,52.8Zm-.478-4.026q0-.767.478-.767t.478.767v2.336q0,.779-.478.779t-.478-.779Z" transform="translate(-205.319 -45.273)" fill="#7a4e4f"/>
      <path id="Контур_78" data-name="Контур 78" d="M309.943,54.45a1.6,1.6,0,0,0,1.146-.69v.612H312.1v-5.55h-1.012v4.237q-.334.478-.634.478-.2,0-.234-.245a2.9,2.9,0,0,1-.011-.389V48.822H309.2V53.2a2.858,2.858,0,0,0,.089.834A.618.618,0,0,0,309.943,54.45Z" transform="translate(-298.877 -46.92)" fill="#7a4e4f"/>
    </g>
  </g>
</svg>
