<svg xmlns="http://www.w3.org/2000/svg" width="176.551" height="66.001" viewBox="0 0 176.551 66.001">
  <g id="логотип_большой" data-name="логотип большой" transform="translate(41.809 -34)">
    <g id="Слой_1" data-name="Слой 1" transform="translate(-41.809 34)">
      <g id="Сгруппировать_34" data-name="Сгруппировать 34" transform="translate(155.811 0)">
        <path id="Контур_22" data-name="Контур 22" d="M9.916,19.65A9.888,9.888,0,0,1,0,9.438,10.461,10.461,0,0,1,3.225,2.522,9.517,9.517,0,0,1,10.78.078s-2.058.6-2.393,1.459A2.508,2.508,0,0,1,9.854,3.488a3.246,3.246,0,0,1-.675,2.375A3.817,3.817,0,0,0,5.448,3.717,3.857,3.857,0,0,0,1.837,6.384C.5,9.786,3.174,15.62,7.547,15.775c2.462.089,3.122-1.378,4.937-1.477,1.612-.089,2.363.722,2.8.111a5.663,5.663,0,0,0,.624-3.364c-.235-.34-.563.051-.855.275a11.106,11.106,0,0,1-5.017,2.135,21.387,21.387,0,0,0-2.274.277,4.041,4.041,0,0,1-1.415.352,15.742,15.742,0,0,1-1.887-.655.314.314,0,0,1,.365.01c-.193-.039-.226-.2-.1-.19a2.2,2.2,0,0,1,.708.194c-.166-.1-.293-.257-.4-.318-.129-.078.129-.071.147-.06a5.359,5.359,0,0,1,.5.244,3.179,3.179,0,0,0-.257-.257c-.064-.06-.009-.114.571.158.446.21.459-.189.359-.185a.784.784,0,0,1-.72-.506,3.3,3.3,0,0,0,.812.172c.377.017.574-.148.962-.05a1.409,1.409,0,0,0,1.23.018,16.941,16.941,0,0,0,1.618-.823,10.149,10.149,0,0,1,1.385-.409,9.341,9.341,0,0,0,2.236-1.544c.412-.453,1.526-1.949,3.18-1.851.117.008.423-.781,0-.992a6.351,6.351,0,0,1-.862.633,4.769,4.769,0,0,1-1.876.715c-3.795,4.023-9.478,3.9-10.978,1.464A2.917,2.917,0,0,1,5.472,5.264,1.435,1.435,0,0,1,7.042,6.37a1.376,1.376,0,0,0-.661-.284,1.513,1.513,0,0,0-1.358.434c-1.048,1.2.081,3.416,3,2.3,1.306-.5,2.255-2.224,4.268-3.708a1.439,1.439,0,0,1,1.222-.247s1.263-2.039,2.458-2.349c2.39-.621,2.123.508,2.123.508a1.413,1.413,0,0,1,.6.742c.142.3.072.44.32.682a.636.636,0,0,0,.488.241c.123-.023.172-.033.21.018.054.076-.033.161-.08.3,0,.009-.024.107.037.151s.111.01.142.051c.113.157-.105.3-.105.3s.139-.045.2.049c.075.118-.064.219-.09.271-.066.138.361.257.257.551-.129.338-.772.257-.886.49a2.74,2.74,0,0,0,0,2.038c.085.145.221.019.28.2.042.129.041.715.157,1.136.154.566.643.584,1.016,1.3.031.059.085.062.105.136s-.032.108-.042.163a1.333,1.333,0,0,1-1.442,1.11s-.241.554-.608,1.326a9.965,9.965,0,0,1-8.727,5.373" transform="translate(0 -0.003)" fill="#fff"/>
      </g>
      <path id="Контур_23" data-name="Контур 23" d="M146.589,31.278a.3.3,0,0,0,.115-.212c.014-.1-.088-.257-.073-.187.023.109.032.147-.012.21a.17.17,0,0,1-.118.071" transform="translate(28.156 -26.889)" fill="#fff"/>
      <path id="Контур_24" data-name="Контур 24" d="M57.933,162.647c0-.209,0-.308-.154-.308q-.793,0-2.708,2.081a71.147,71.147,0,0,0-4.525,5.5c-1.74,2.3-3.611,4.954-5.615,7.927s-4.03,6.066-6.033,9.259a13.885,13.885,0,0,0,3.589,2.136,13.4,13.4,0,0,0,4,.936c1.387-2.808,2.774-5.637,4.14-8.477s2.587-5.5,3.666-8.015,1.949-4.712,2.631-6.606a15.028,15.028,0,0,0,1.013-4.4ZM45.712,191.833a15.946,15.946,0,0,1-4.008-.683,7.542,7.542,0,0,1-2.863-1.508,1.061,1.061,0,0,0-.154.319.88.88,0,0,0-.055.253c0,.628-.1,1.651-.209,3.072s-.209,2.962-.33,4.624-.242,3.3-.341,4.844-.154,2.774-.154,3.633,0,1.1.154,1.1.176-.066.308-.209a.539.539,0,0,0,.154-.209q1.1-2.543,3.149-6.606Zm20.379-16.382a22.988,22.988,0,0,1-2.675,6.8,19.818,19.818,0,0,1-3.953,4.789,18.033,18.033,0,0,1-4.734,3.017,21.649,21.649,0,0,1-4.965,1.508l-2.444,5.769c-.793,1.872-1.563,3.633-2.29,5.285l-2,4.525c-.606,1.365-1.1,2.521-1.585,3.457a5.758,5.758,0,0,1-1.74,2.389,3.193,3.193,0,0,1-1.795.682,1.563,1.563,0,0,1-1.3-.473,1.706,1.706,0,0,1-.363-1.1c0-.661,0-1.574.077-2.73s.11-2.444.176-3.853.154-2.874.242-4.4.165-3.028.253-4.4.165-2.752.209-3.974.1-2.2.132-2.995l-2.059,3.4c-.672,1.1-1.321,2.2-1.949,3.358-1,1.74-2.2,3.688-3.534,5.879s-2.819,4.4-4.4,6.606-3.226,4.459-4.943,6.606a64.538,64.538,0,0,1-5.12,5.747,28.95,28.95,0,0,1-5,4.063,8.633,8.633,0,0,1-4.525,1.53,3.127,3.127,0,0,1-2.312-.8,2.686,2.686,0,0,1-.859-1.795,1.1,1.1,0,0,1,.264-.76,1.42,1.42,0,0,1,.65-.407,4,4,0,0,1,.881-.187l.969-.1a14.424,14.424,0,0,0,6.452-2.84,43.019,43.019,0,0,0,6.606-6.088,87.177,87.177,0,0,0,6.705-8.521q3.3-4.822,6.683-10.118,1.9-3.072,4.228-6.782c1.552-2.521,3.182-5.053,4.855-7.6s3.3-5.031,5.021-7.443,3.248-4.536,4.756-6.4a42.05,42.05,0,0,1,4.14-4.47,5.241,5.241,0,0,1,3.072-1.685,1.343,1.343,0,0,1,1.321.859,4.228,4.228,0,0,1,.4,1.795,16.426,16.426,0,0,1-.782,3.9q-.793,2.708-2.081,6.286t-2.995,7.828q-1.685,4.239-3.457,8.51a15.973,15.973,0,0,0,4.7-1.585,17.428,17.428,0,0,0,4.239-2.94,18.123,18.123,0,0,0,3.38-4.316,18.98,18.98,0,0,0,2.1-5.725.793.793,0,0,1,.837-.672c.352,0,.517.154.517.473Z" transform="translate(-2.629 -160.938)" fill="#fff"/>
      <path id="Контур_25" data-name="Контур 25" d="M56.121,184.18c0-.484-.132-.793-.385-.914a2.313,2.313,0,0,0-.969-.176,2.015,2.015,0,0,0-1.552.672,2.29,2.29,0,0,0-.584,1.585,2.852,2.852,0,0,0,.5,1.519,3.886,3.886,0,0,0,1.64,1.343,18.961,18.961,0,0,0,1.035-2.334,5.505,5.505,0,0,0,.363-1.717Zm10.4,5.042a.727.727,0,0,1-.154.418c-1.387,1.277-2.763,2.675-4.107,4.184a57.13,57.13,0,0,0-3.644,4.47,30.088,30.088,0,0,0-2.6,4.14,7.31,7.31,0,0,0-.991,3.116c0,1.354.385,2.037,1.1,2.037q2.2,0,9.094-8.224a.264.264,0,0,1,.209.11.573.573,0,0,1,.209.407.638.638,0,0,1-.1.363,33.921,33.921,0,0,1-6.87,7.024c-2.081,1.453-3.776,2.2-5.1,2.2a4.173,4.173,0,0,1-2.675-.683,2.2,2.2,0,0,1-.8-1.762,7.486,7.486,0,0,1,1.1-3.468,35.23,35.23,0,0,1,2.708-4.074,46.374,46.374,0,0,1,3.3-3.93c1.178-1.233,2.2-2.2,3.017-3.039a30.02,30.02,0,0,1-3.3-.837,14.5,14.5,0,0,1-2.488-1.035q-1.662,2.642-3.831,5.5c-1.431,1.894-2.885,3.721-4.338,5.5l-.264-.1a.363.363,0,0,1-.253-.363,1.211,1.211,0,0,1,.363-.683l.936-1.1a57.331,57.331,0,0,0,3.556-4.6c1.1-1.607,2.125-3.149,2.995-4.6a6.9,6.9,0,0,1-2.2-1.971,3.8,3.8,0,0,1-.683-2.081,3.479,3.479,0,0,1,.473-1.772,4.832,4.832,0,0,1,1.277-1.453,6.187,6.187,0,0,1,1.872-.991,6.737,6.737,0,0,1,2.2-.363,1.244,1.244,0,0,1,1.409,1.409,6.4,6.4,0,0,1-.628,2.389,32.951,32.951,0,0,1-1.662,3.3,11.514,11.514,0,0,0,3.644.473h2.444a16.883,16.883,0,0,0,1.971-.154c.584-.066,1.233-.154,1.828-.264a.946.946,0,0,1,.407.11l.319.209a.352.352,0,0,1,.154.308Z" transform="translate(1.693 -158.857)" fill="#fff"/>
      <path id="Контур_26" data-name="Контур 26" d="M90.75,172.712a.231.231,0,0,0-.253-.253,4.338,4.338,0,0,0-2.312.958,24.779,24.779,0,0,0-3.072,2.6c-1.1,1.1-2.323,2.367-3.589,3.82s-2.521,3.017-3.776,4.69l1.993-.154c.672-.055,1.365-.11,2.059-.187q1.872-2.026,3.5-3.9c1.1-1.244,2.037-2.389,2.841-3.4a28.4,28.4,0,0,0,1.872-2.631,3.633,3.633,0,0,0,.672-1.563ZM79.884,186.188c-.584.066-1.178.11-1.762.132a11.663,11.663,0,0,0-1.828.121q-2.907,3.963-5.351,7.96,2.2-1.817,4.492-3.93t4.4-4.283Zm33.239-6.088a3.688,3.688,0,0,1-.418,1.508,1.982,1.982,0,0,1-.936,1.1,16.884,16.884,0,0,1-2.037.44c-1.178.231-2.973.5-5.406.815s-5.5.65-9.336,1.013-8.379.738-13.751,1.1q-2.752,2.708-5.725,5.417c-1.971,1.794-3.953,3.534-5.923,5.2a57.365,57.365,0,0,0-2.94,5.9,11.869,11.869,0,0,0-1.1,4.294c0,1.277.562,1.927,1.674,1.927q2.2,0,9.094-8.224a.287.287,0,0,1,.209.11.572.572,0,0,1,.209.407.638.638,0,0,1-.1.363,33.92,33.92,0,0,1-6.87,7.024c-2.081,1.453-3.776,2.2-5.1,2.2a4.2,4.2,0,0,1-2.995-.892,3.237,3.237,0,0,1-.9-2.444,10.943,10.943,0,0,1,.958-4.052,39.474,39.474,0,0,1,2.576-5.075q1.618-2.719,3.765-5.692c1.442-1.982,2.962-3.93,4.558-5.879-.727.077-1.475.121-2.2.154l-2.345.11h-.7a2.523,2.523,0,0,1-.749-.154,1.674,1.674,0,0,1-.628-.385.98.98,0,0,1-.253-.727c0-.451.2-.683.617-.683h3.853c1.321,0,2.664-.088,4.052-.165,1.773-2.07,3.556-4.052,5.362-5.923s3.479-3.512,5.021-4.91a42.068,42.068,0,0,1,4.074-3.3,5.505,5.505,0,0,1,2.653-1.255c1.222,0,1.828.451,1.828,1.354a5.152,5.152,0,0,1-.76,2.29,24.349,24.349,0,0,1-2.081,3.149c-.881,1.167-1.927,2.422-3.116,3.765s-2.51,2.763-3.931,4.217q6.606-.584,13.025-1.453c4.327-.594,8.4-1.211,12.254-1.872q.555-.077,1.1-.209l1.3-.286,1.1-.231a4.329,4.329,0,0,1,.517-.11c.352,0,.528.066.528.209Z" transform="translate(3.188 -160.082)" fill="#fff"/>
      <path id="Контур_27" data-name="Контур 27" d="M113.58,166.261c0-.771-.4-1.1-1.189-1.1a7.894,7.894,0,0,0-4.4,1.761,36.339,36.339,0,0,0-5.153,4.6q-2.675,2.841-5.5,6.32c-1.85,2.323-3.633,4.635-5.329,6.925a38.188,38.188,0,0,0,8.588-4.14,47.342,47.342,0,0,0,6.837-5.329,33.108,33.108,0,0,0,4.525-5.208,7.806,7.806,0,0,0,1.629-3.787Zm2.2-1.1a6.607,6.607,0,0,1-.9,2.94,22.624,22.624,0,0,1-2.554,3.776,42.475,42.475,0,0,1-3.953,4.206,48.9,48.9,0,0,1-5.142,4.217,52.474,52.474,0,0,1-6.144,3.765,43.315,43.315,0,0,1-6.837,2.9c-1.1,1.552-2.2,3.017-3.193,4.4s-1.9,2.532-2.642,3.523a.429.429,0,0,0-.11.154.881.881,0,0,0-.1.253c0,.11.088.165.253.165a44.222,44.222,0,0,1,7.575-4.481,14.313,14.313,0,0,1,5.23-1.508,4.261,4.261,0,0,1,1.288.165.683.683,0,0,1,.528.727,2.367,2.367,0,0,1-.341,1.1,10.03,10.03,0,0,1-1.1,1.64c-.771.936-1.673,2.07-2.708,3.38s-2.026,2.653-2.962,4.007a40.644,40.644,0,0,0-2.4,3.875,6.98,6.98,0,0,0-.98,3.039c0,1.354.374,2.037,1.1,2.037q2.2,0,9.094-8.224a.286.286,0,0,1,.209.11.562.562,0,0,1,.1.771,35.928,35.928,0,0,1-7.256,7.366q-3.3,2.367-5.428,2.367c-1.7,0-2.554-.991-2.554-2.962a6.231,6.231,0,0,1,.837-2.785,26.958,26.958,0,0,1,2.081-3.3c.826-1.167,1.729-2.334,2.675-3.512l2.675-3.281c.837-1,1.53-1.883,2.081-2.62a3.435,3.435,0,0,0,.837-1.6c0-.2-.121-.308-.363-.308a9.149,9.149,0,0,0-3.49,1.2,37.429,37.429,0,0,0-5.45,3.479A24.771,24.771,0,0,0,82.587,199q-1.751,1.817-3.545,3.82c-1.189,1.343-2.356,2.609-3.5,3.831a31.721,31.721,0,0,1-3.017,2.851,2.091,2.091,0,0,1-.815.4,3.709,3.709,0,0,1-.958.132,1.662,1.662,0,0,1-1.244-.5A1.916,1.916,0,0,1,69,208.1a128.37,128.37,0,0,0,8.687-9.611q4.261-5.2,8.323-10.4c-.595.132-1.2.253-1.828.341s-1.244.143-1.872.176a2.7,2.7,0,0,1-1.376-.341,1.343,1.343,0,0,1-.8-1.321c0-.451.209-.683.628-.683s.617.066,1.013.088h1.222a21.722,21.722,0,0,0,2.386-.132c.807-.088,1.6-.2,2.392-.342q3.545-4.525,6.947-8.576a87.808,87.808,0,0,1,6.606-7.156,35.23,35.23,0,0,1,6.342-4.91,11.924,11.924,0,0,1,6.055-1.817c1.354,0,2.026.584,2.026,1.762Z" transform="translate(4.015 -160.689)" fill="#fff"/>
      <path id="Контур_28" data-name="Контур 28" d="M120.32,185.482a1.53,1.53,0,0,1-.242.782,4.128,4.128,0,0,1-.539.76,3.741,3.741,0,0,1-.606.54.871.871,0,0,1-.385.209.7.7,0,0,1-.1-.286,1.938,1.938,0,0,0-.286-.628,2.466,2.466,0,0,0-.7-.616,2.807,2.807,0,0,0-1.409-.286,11.483,11.483,0,0,0-4.6,1.013,22.534,22.534,0,0,0-4.4,2.6,33.8,33.8,0,0,0-4.03,3.534,37.441,37.441,0,0,0-3.3,3.853,22.834,22.834,0,0,0-2.2,3.534,6.4,6.4,0,0,0-.815,2.521c0,.627.275.936.837.936a7.223,7.223,0,0,0,3.3-.958,22.7,22.7,0,0,0,3.479-2.312,41.121,41.121,0,0,0,3.149-2.786c.969-.958,1.751-1.74,2.334-2.367s1.013-1.1,1.7-1.872,1.354-1.508,2.048-2.2,1.343-1.365,1.96-1.9a3.3,3.3,0,0,1,1.376-.859l.539-.077h.65a5.505,5.505,0,0,1,1.277.132c.363.088.55.231.55.44a.847.847,0,0,1-.11.264,8.426,8.426,0,0,1-.958,1.035c-.473.451-.958.969-1.486,1.563s-1.486,1.6-2.389,2.62a35.633,35.633,0,0,0-2.576,3.3,23.355,23.355,0,0,0-2.081,3.666,8.885,8.885,0,0,0-.859,3.666c0,1.354.385,2.037,1.1,2.037q2.2,0,9.105-8.224a.3.3,0,0,1,.209.11.617.617,0,0,1,.209.407.649.649,0,0,1-.11.363,33.909,33.909,0,0,1-6.859,7.024c-2.081,1.453-3.787,2.2-5.1,2.2a2.411,2.411,0,0,1-1.949-.837,3.578,3.578,0,0,1-.7-2.389,8.809,8.809,0,0,1,.341-2.312,11.748,11.748,0,0,1,1.1-2.631c0-.176-.077-.264-.253-.264s-.242.088-.418.264-.55.539-1.1.991-1.046.947-1.685,1.508-1.343,1.1-2.1,1.718a24.361,24.361,0,0,1-2.345,1.585,17.425,17.425,0,0,1-2.367,1.167,6.043,6.043,0,0,1-2.2.462,2.939,2.939,0,0,1-2.2-.694,2.631,2.631,0,0,1-.672-1.9,9.016,9.016,0,0,1,1.035-3.743,24.738,24.738,0,0,1,2.885-4.547,40.04,40.04,0,0,1,4.4-4.712,38.671,38.671,0,0,1,5.5-4.184A31.924,31.924,0,0,1,111.5,185.7a20.113,20.113,0,0,1,6.606-1.1,3.138,3.138,0,0,1,1.629.286.815.815,0,0,1,.451.694Z" transform="translate(6.27 -158.551)" fill="#fff"/>
      <path id="Контур_29" data-name="Контур 29" d="M135.617,179.633a4.03,4.03,0,0,1-.385,1.762,4.811,4.811,0,0,1-1.046,1.464,4.966,4.966,0,0,1-1.5.98,4.4,4.4,0,0,1-1.751.363,2.951,2.951,0,0,1-2.2-.826,2.874,2.874,0,0,1-.837-2.136,4.085,4.085,0,0,1,.4-1.773,4.866,4.866,0,0,1,1.035-1.453,5.239,5.239,0,0,1,1.486-.991,4.215,4.215,0,0,1,1.718-.363,2.973,2.973,0,0,1,2.2.859,2.874,2.874,0,0,1,.859,2.114Zm-6.606,8.522a.893.893,0,0,1-.1.264l-1.949,2.444q-1.1,1.4-2.312,3.039c-.8,1.1-1.585,2.2-2.367,3.3s-1.486,2.2-2.114,3.3a25.6,25.6,0,0,0-1.5,3.039,6.606,6.606,0,0,0-.584,2.444c0,1.354.385,2.037,1.1,2.037q2.2,0,9.105-8.224a.286.286,0,0,1,.209.11.562.562,0,0,1,.1.771,34.13,34.13,0,0,1-7.123,7.211q-3.3,2.257-5.351,2.2a2.544,2.544,0,0,1-1.982-.782,3.214,3.214,0,0,1-.727-2.279,7.9,7.9,0,0,1,.595-2.686,28.725,28.725,0,0,1,1.563-3.3c.639-1.178,1.365-2.389,2.2-3.622s1.64-2.4,2.455-3.512,1.6-2.114,2.356-3.017,1.431-1.629,1.982-2.2a7.567,7.567,0,0,1,.782-.7,2.324,2.324,0,0,1,.595-.33,1.872,1.872,0,0,1,.628-.132h.914c1,0,1.5.2,1.5.573Z" transform="translate(8.478 -159.351)" fill="#fff"/>
      <path id="Контур_30" data-name="Контур 30" d="M136.058,184.181c0-.484-.132-.793-.4-.914a2.2,2.2,0,0,0-.958-.176,2.037,2.037,0,0,0-1.563.672,2.29,2.29,0,0,0-.627,1.607,2.851,2.851,0,0,0,.5,1.519,3.964,3.964,0,0,0,1.64,1.343,19.177,19.177,0,0,0,1.1-2.334,5.5,5.5,0,0,0,.363-1.717Zm10.393,5.042a.661.661,0,0,1-.154.418q-2.081,1.916-4.107,4.184c-1.354,1.508-2.565,3.006-3.644,4.47a32.374,32.374,0,0,0-2.6,4.14,7.31,7.31,0,0,0-.991,3.116c0,1.354.385,2.037,1.1,2.037q2.2,0,9.105-8.224a.3.3,0,0,1,.209.11.617.617,0,0,1,.209.407.572.572,0,0,1-.11.363,33.634,33.634,0,0,1-6.859,7.024c-2.081,1.453-3.787,2.2-5.1,2.2a4.129,4.129,0,0,1-2.675-.683,2.2,2.2,0,0,1-.815-1.762,7.388,7.388,0,0,1,1.1-3.468,35.226,35.226,0,0,1,2.708-4.074,46.249,46.249,0,0,1,3.3-3.93c1.178-1.233,2.2-2.2,3.017-3.039a29.786,29.786,0,0,1-3.3-.837,14.628,14.628,0,0,1-2.5-1.035c-1.1,1.762-2.378,3.589-3.82,5.5s-2.885,3.721-4.4,5.5l-.253-.1a.363.363,0,0,1-.264-.363,1.211,1.211,0,0,1,.363-.683l.936-1.1a55.051,55.051,0,0,0,3.567-4.6c1.1-1.607,2.125-3.149,2.995-4.6a6.837,6.837,0,0,1-2.2-1.971,3.788,3.788,0,0,1-.672-2.081,3.578,3.578,0,0,1,.462-1.772,4.986,4.986,0,0,1,1.277-1.453,6.317,6.317,0,0,1,1.872-.991,6.8,6.8,0,0,1,2.2-.363,1.233,1.233,0,0,1,1.4,1.409,6.606,6.606,0,0,1-.616,2.389,35.548,35.548,0,0,1-1.662,3.3,11.45,11.45,0,0,0,3.633.473h2.444a17.279,17.279,0,0,0,1.982-.154c.595-.066,1.222-.154,1.817-.264a.991.991,0,0,1,.418.11l.308.209a.33.33,0,0,1,.154.308Z" transform="translate(9.69 -158.857)" fill="#fff"/>
    </g>
  </g>
</svg>
