<svg xmlns="http://www.w3.org/2000/svg" width="203.3" height="76" viewBox="0 0 203.3 76">
  <g id="логотип" transform="translate(41.809 -34)">
    <g id="Слой_1" data-name="Слой 1" transform="translate(-41.809 34)">
      <g id="Сгруппировать_34" data-name="Сгруппировать 34" transform="translate(179.417 0)">
        <path id="Контур_22" data-name="Контур 22" d="M11.418,22.626A11.386,11.386,0,0,1,0,10.867,12.045,12.045,0,0,1,3.714,2.9a10.959,10.959,0,0,1,8.7-2.815s-2.37.687-2.755,1.68a2.888,2.888,0,0,1,1.689,2.247,3.737,3.737,0,0,1-.778,2.735,4.4,4.4,0,0,0-4.3-2.471A4.441,4.441,0,0,0,2.115,7.35C.57,11.269,3.654,17.986,8.691,18.164c2.835.1,3.6-1.587,5.685-1.7,1.856-.1,2.721.831,3.229.127.593-.821,1.016-3.446.718-3.874-.271-.391-.649.059-.985.317a12.788,12.788,0,0,1-5.777,2.459,24.627,24.627,0,0,0-2.619.318,4.653,4.653,0,0,1-1.629.406,18.127,18.127,0,0,1-2.173-.754.362.362,0,0,1,.421.012c-.222-.044-.261-.225-.11-.219a2.539,2.539,0,0,1,.815.224c-.191-.117-.338-.3-.462-.366-.148-.09.148-.081.169-.07a6.17,6.17,0,0,1,.573.281,3.661,3.661,0,0,0-.3-.3c-.074-.07-.01-.132.658.182.514.241.529-.218.413-.213a.9.9,0,0,1-.83-.582,3.8,3.8,0,0,0,.935.2c.434.019.661-.17,1.108-.058a1.622,1.622,0,0,0,1.416.021,19.507,19.507,0,0,0,1.864-.948,11.687,11.687,0,0,1,1.6-.471,10.757,10.757,0,0,0,2.575-1.778c.474-.521,1.757-2.244,3.662-2.132.135.009.487-.9,0-1.142a7.314,7.314,0,0,1-.992.729,5.491,5.491,0,0,1-2.16.824c-4.37,4.632-10.914,4.5-12.642,1.686A3.359,3.359,0,0,1,6.3,6.062,1.653,1.653,0,0,1,8.109,7.334a1.585,1.585,0,0,0-.761-.327,1.742,1.742,0,0,0-1.564.5c-1.207,1.385.093,3.933,3.45,2.649,1.5-.576,2.6-2.561,4.915-4.269A1.658,1.658,0,0,1,15.555,5.6s1.455-2.348,2.831-2.7c2.752-.715,2.444.585,2.444.585a1.627,1.627,0,0,1,.686.855c.163.351.083.507.369.785a.733.733,0,0,0,.561.277c.142-.027.2-.039.241.021.062.087-.039.185-.092.341,0,.01-.028.123.043.173s.127.012.163.059c.13.181-.121.348-.121.348s.16-.052.23.056c.086.136-.074.252-.1.313-.076.159.416.3.3.634-.148.39-.889.3-1.021.564a3.155,3.155,0,0,0,0,2.346c.1.167.255.022.323.231.049.148.047.824.181,1.308.178.652.741.673,1.17,1.5.036.068.1.071.121.157s-.037.124-.049.188a1.535,1.535,0,0,1-1.661,1.278s-.277.638-.7,1.527a11.475,11.475,0,0,1-10.049,6.188" transform="translate(0 -0.003)" fill="#976d6e"/>
      </g>
      <path id="Контур_23" data-name="Контур 23" d="M146.6,31.341a.35.35,0,0,0,.132-.245c.016-.117-.1-.3-.084-.215.027.126.037.169-.013.242a.2.2,0,0,1-.136.082" transform="translate(54.617 -26.287)" fill="#976d6e"/>
      <path id="Контур_24" data-name="Контур 24" d="M66.312,162.905c0-.241,0-.355-.177-.355q-.913,0-3.119,2.4a81.93,81.93,0,0,0-5.211,6.339c-2,2.65-4.158,5.7-6.466,9.128s-4.64,6.985-6.948,10.662a15.989,15.989,0,0,0,4.133,2.46,15.432,15.432,0,0,0,4.6,1.078c1.6-3.233,3.195-6.491,4.767-9.762s2.979-6.339,4.222-9.229,2.244-5.426,3.03-7.607a17.3,17.3,0,0,0,1.166-5.071ZM52.239,196.514a18.362,18.362,0,0,1-4.615-.786,8.684,8.684,0,0,1-3.3-1.737,1.221,1.221,0,0,0-.178.368,1.014,1.014,0,0,0-.063.292c0,.723-.114,1.9-.241,3.537s-.241,3.41-.38,5.325-.279,3.8-.393,5.578-.177,3.195-.177,4.184,0,1.268.177,1.268.2-.076.355-.241a.621.621,0,0,0,.177-.241q1.268-2.928,3.626-7.607ZM75.706,177.65a26.471,26.471,0,0,1-3.081,7.835A22.821,22.821,0,0,1,68.074,191a20.766,20.766,0,0,1-5.452,3.474A24.928,24.928,0,0,1,56.9,196.21l-2.814,6.643c-.913,2.155-1.8,4.184-2.637,6.085l-2.307,5.21c-.7,1.572-1.268,2.9-1.826,3.981a6.631,6.631,0,0,1-2,2.751,3.677,3.677,0,0,1-2.067.786,1.8,1.8,0,0,1-1.5-.545,1.965,1.965,0,0,1-.418-1.268c0-.761,0-1.813.089-3.144s.127-2.814.2-4.437.177-3.309.279-5.071.19-3.486.292-5.071.19-3.169.241-4.577.114-2.536.152-3.448l-2.371,3.917c-.773,1.268-1.521,2.536-2.244,3.867-1.154,2-2.536,4.247-4.07,6.77s-3.246,5.071-5.071,7.607-3.715,5.134-5.692,7.607a74.317,74.317,0,0,1-5.9,6.618,33.337,33.337,0,0,1-5.756,4.678,9.941,9.941,0,0,1-5.211,1.762A3.6,3.6,0,0,1,3.619,236a3.093,3.093,0,0,1-.989-2.066,1.268,1.268,0,0,1,.3-.875,1.635,1.635,0,0,1,.748-.469,4.611,4.611,0,0,1,1.014-.216l1.116-.114a16.609,16.609,0,0,0,7.429-3.271,49.537,49.537,0,0,0,7.607-7.011,100.388,100.388,0,0,0,7.721-9.812q3.8-5.553,7.7-11.651,2.193-3.537,4.868-7.809c1.788-2.9,3.664-5.819,5.591-8.748s3.8-5.794,5.781-8.57,3.74-5.223,5.477-7.366a48.421,48.421,0,0,1,4.767-5.147,6.035,6.035,0,0,1,3.537-1.94,1.547,1.547,0,0,1,1.521.989A4.869,4.869,0,0,1,68.264,164a18.915,18.915,0,0,1-.9,4.488q-.913,3.119-2.4,7.239t-3.448,9.014q-1.94,4.881-3.981,9.8a18.393,18.393,0,0,0,5.413-1.826,20.069,20.069,0,0,0,4.881-3.385,20.868,20.868,0,0,0,3.892-4.97,21.856,21.856,0,0,0,2.421-6.592.913.913,0,0,1,.964-.773c.406,0,.6.177.6.545Z" transform="translate(-2.629 -160.938)" fill="#976d6e"/>
      <path id="Контур_25" data-name="Контур 25" d="M57.693,184.578c0-.558-.152-.913-.444-1.052a2.664,2.664,0,0,0-1.116-.2,2.32,2.32,0,0,0-1.788.773,2.637,2.637,0,0,0-.672,1.826,3.284,3.284,0,0,0,.571,1.75,4.475,4.475,0,0,0,1.889,1.547,21.834,21.834,0,0,0,1.192-2.688,6.339,6.339,0,0,0,.418-1.978Zm11.981,5.806a.837.837,0,0,1-.177.482c-1.6,1.471-3.182,3.081-4.729,4.817a65.786,65.786,0,0,0-4.2,5.147,34.647,34.647,0,0,0-2.992,4.767,8.418,8.418,0,0,0-1.141,3.588c0,1.559.444,2.345,1.268,2.345q2.536,0,10.472-9.47a.3.3,0,0,1,.241.127.66.66,0,0,1,.241.469.735.735,0,0,1-.114.418,39.06,39.06,0,0,1-7.911,8.088c-2.4,1.673-4.349,2.536-5.87,2.536a4.8,4.8,0,0,1-3.081-.786,2.536,2.536,0,0,1-.925-2.028,8.62,8.62,0,0,1,1.268-3.993,40.569,40.569,0,0,1,3.119-4.691,53.4,53.4,0,0,1,3.8-4.526c1.357-1.42,2.536-2.536,3.474-3.5a34.564,34.564,0,0,1-3.8-.964,16.7,16.7,0,0,1-2.865-1.192q-1.914,3.043-4.412,6.339c-1.648,2.181-3.322,4.285-5,6.339l-.3-.114a.418.418,0,0,1-.292-.418,1.4,1.4,0,0,1,.418-.786l1.078-1.268a66.014,66.014,0,0,0,4.095-5.3c1.268-1.851,2.447-3.626,3.448-5.3a7.95,7.95,0,0,1-2.536-2.269,4.373,4.373,0,0,1-.786-2.4,4.006,4.006,0,0,1,.545-2.041,5.564,5.564,0,0,1,1.471-1.674,7.125,7.125,0,0,1,2.155-1.141,7.758,7.758,0,0,1,2.536-.418A1.433,1.433,0,0,1,59.8,183.2a7.366,7.366,0,0,1-.723,2.751,37.942,37.942,0,0,1-1.914,3.8,13.258,13.258,0,0,0,4.2.545h2.814a19.44,19.44,0,0,0,2.269-.177c.672-.076,1.42-.177,2.1-.3a1.089,1.089,0,0,1,.469.127l.368.241a.406.406,0,0,1,.178.355Z" transform="translate(8.881 -155.417)" fill="#976d6e"/>
      <path id="Контур_26" data-name="Контур 26" d="M95.293,173.211a.266.266,0,0,0-.292-.292,5,5,0,0,0-2.662,1.1,28.533,28.533,0,0,0-3.537,2.992c-1.268,1.268-2.675,2.726-4.133,4.4s-2.9,3.474-4.349,5.4l2.295-.177c.773-.063,1.572-.127,2.371-.216q2.155-2.333,4.032-4.488c1.268-1.433,2.345-2.751,3.271-3.917a32.709,32.709,0,0,0,2.155-3.03,4.184,4.184,0,0,0,.773-1.8ZM82.78,188.728c-.672.076-1.357.127-2.028.152a13.43,13.43,0,0,0-2.1.139q-3.347,4.564-6.162,9.166,2.536-2.092,5.173-4.526t5.071-4.932Zm38.275-7.011a4.247,4.247,0,0,1-.482,1.737,2.282,2.282,0,0,1-1.078,1.268,19.442,19.442,0,0,1-2.345.507c-1.357.266-3.423.571-6.225.938s-6.339.748-10.751,1.166-9.648.849-15.835,1.268q-3.169,3.119-6.592,6.237c-2.269,2.066-4.551,4.07-6.821,5.984a66.057,66.057,0,0,0-3.385,6.8,13.667,13.667,0,0,0-1.268,4.944c0,1.471.647,2.219,1.927,2.219q2.536,0,10.472-9.47a.33.33,0,0,1,.241.127.659.659,0,0,1,.241.469.735.735,0,0,1-.114.418,39.06,39.06,0,0,1-7.911,8.088c-2.4,1.673-4.349,2.535-5.87,2.535a4.831,4.831,0,0,1-3.448-1.027,3.727,3.727,0,0,1-1.04-2.814,12.6,12.6,0,0,1,1.1-4.665,45.455,45.455,0,0,1,2.967-5.844q1.864-3.131,4.336-6.554c1.661-2.282,3.41-4.526,5.249-6.77-.837.089-1.7.14-2.536.178l-2.7.127h-.811a2.906,2.906,0,0,1-.862-.178,1.927,1.927,0,0,1-.723-.444,1.128,1.128,0,0,1-.292-.837c0-.52.228-.786.71-.786h4.437c1.521,0,3.068-.1,4.665-.19,2.041-2.383,4.095-4.665,6.174-6.821s4.006-4.044,5.781-5.654a48.444,48.444,0,0,1,4.691-3.8,6.34,6.34,0,0,1,3.055-1.445c1.407,0,2.1.52,2.1,1.559a5.933,5.933,0,0,1-.875,2.637,28.038,28.038,0,0,1-2.4,3.626c-1.014,1.344-2.219,2.789-3.588,4.336s-2.891,3.182-4.526,4.855q7.607-.672,15-1.673c4.982-.685,9.673-1.395,14.111-2.155q.639-.089,1.268-.241l1.5-.33,1.268-.266a4.987,4.987,0,0,1,.6-.127c.406,0,.609.076.609.241Z" transform="translate(12.877 -158.667)" fill="#976d6e"/>
      <path id="Контур_27" data-name="Контур 27" d="M120.334,166.693c0-.887-.456-1.268-1.369-1.268a9.09,9.09,0,0,0-5.071,2.028,41.845,41.845,0,0,0-5.933,5.3q-3.081,3.271-6.339,7.277c-2.13,2.675-4.184,5.337-6.136,7.974a43.973,43.973,0,0,0,9.889-4.767,54.514,54.514,0,0,0,7.873-6.136,38.124,38.124,0,0,0,5.211-6,8.988,8.988,0,0,0,1.876-4.361Zm2.536-1.268a7.607,7.607,0,0,1-1.04,3.385,26.052,26.052,0,0,1-2.941,4.348A48.912,48.912,0,0,1,114.338,178a56.308,56.308,0,0,1-5.921,4.856,60.422,60.422,0,0,1-7.074,4.336,49.875,49.875,0,0,1-7.873,3.334C92.2,192.315,90.934,194,89.793,195.6s-2.193,2.916-3.043,4.057a.494.494,0,0,0-.127.177,1.015,1.015,0,0,0-.114.292c0,.127.1.19.292.19a50.922,50.922,0,0,1,8.722-5.16,16.482,16.482,0,0,1,6.022-1.737,4.907,4.907,0,0,1,1.483.19.786.786,0,0,1,.609.837,2.726,2.726,0,0,1-.393,1.268,11.55,11.55,0,0,1-1.268,1.889c-.887,1.078-1.927,2.383-3.119,3.892s-2.333,3.055-3.41,4.615a46.8,46.8,0,0,0-2.764,4.463,8.038,8.038,0,0,0-1.128,3.5c0,1.559.431,2.345,1.268,2.345q2.536,0,10.472-9.47a.33.33,0,0,1,.241.127.647.647,0,0,1,.114.887,41.372,41.372,0,0,1-8.355,8.481q-3.8,2.726-6.25,2.726c-1.952,0-2.941-1.141-2.941-3.41a7.175,7.175,0,0,1,.964-3.207,31.043,31.043,0,0,1,2.4-3.8c.951-1.344,1.99-2.688,3.081-4.044l3.081-3.778c.964-1.154,1.762-2.168,2.4-3.017a3.955,3.955,0,0,0,.963-1.838c0-.228-.139-.355-.418-.355a10.535,10.535,0,0,0-4.019,1.382,43.1,43.1,0,0,0-6.276,4.006,28.525,28.525,0,0,0-3.626,3.3q-2.016,2.092-4.082,4.4c-1.369,1.547-2.713,3-4.032,4.412a36.525,36.525,0,0,1-3.474,3.283,2.408,2.408,0,0,1-.938.456,4.27,4.27,0,0,1-1.1.152,1.914,1.914,0,0,1-1.433-.571A2.206,2.206,0,0,1,69,214.869,147.822,147.822,0,0,0,79,203.8q4.906-5.984,9.585-11.98c-.685.152-1.382.292-2.1.393s-1.433.165-2.155.2a3.106,3.106,0,0,1-1.585-.393,1.547,1.547,0,0,1-.925-1.521c0-.52.241-.786.723-.786s.71.076,1.166.1h1.407a25.014,25.014,0,0,0,2.748-.152c.929-.1,1.842-.229,2.754-.393q4.082-5.21,8-9.876a101.111,101.111,0,0,1,7.607-8.241,40.567,40.567,0,0,1,7.3-5.654,13.73,13.73,0,0,1,6.973-2.092c1.559,0,2.333.672,2.333,2.028Z" transform="translate(15.076 -160.277)" fill="#976d6e"/>
      <path id="Контур_28" data-name="Контур 28" d="M124.7,185.618a1.762,1.762,0,0,1-.279.9,4.754,4.754,0,0,1-.621.875,4.308,4.308,0,0,1-.7.621,1,1,0,0,1-.444.241.807.807,0,0,1-.114-.33,2.232,2.232,0,0,0-.33-.723,2.839,2.839,0,0,0-.811-.71,3.232,3.232,0,0,0-1.623-.33,13.222,13.222,0,0,0-5.3,1.166,25.949,25.949,0,0,0-5.071,2.992,38.923,38.923,0,0,0-4.64,4.07,43.112,43.112,0,0,0-3.8,4.437,26.293,26.293,0,0,0-2.536,4.07,7.365,7.365,0,0,0-.938,2.9c0,.723.317,1.078.964,1.078a8.317,8.317,0,0,0,3.8-1.1,26.138,26.138,0,0,0,4.006-2.662,47.351,47.351,0,0,0,3.626-3.208c1.116-1.1,2.016-2,2.688-2.726s1.166-1.268,1.952-2.155,1.559-1.737,2.358-2.536,1.547-1.572,2.257-2.193a3.8,3.8,0,0,1,1.585-.989l.621-.089h.748a6.34,6.34,0,0,1,1.471.152c.418.1.634.266.634.507a.976.976,0,0,1-.127.3,9.7,9.7,0,0,1-1.1,1.192c-.545.52-1.1,1.116-1.712,1.8s-1.712,1.838-2.751,3.017a41.036,41.036,0,0,0-2.967,3.8,26.894,26.894,0,0,0-2.4,4.222,10.232,10.232,0,0,0-.989,4.222c0,1.559.444,2.345,1.268,2.345q2.536,0,10.485-9.47a.343.343,0,0,1,.241.127.71.71,0,0,1,.241.469.748.748,0,0,1-.127.418,39.046,39.046,0,0,1-7.9,8.088c-2.4,1.673-4.361,2.536-5.87,2.536a2.777,2.777,0,0,1-2.244-.964,4.12,4.12,0,0,1-.811-2.751,10.144,10.144,0,0,1,.393-2.662,13.527,13.527,0,0,1,1.268-3.03c0-.2-.089-.3-.292-.3s-.279.1-.482.3-.634.621-1.268,1.141-1.2,1.09-1.94,1.737-1.547,1.268-2.421,1.978a28.05,28.05,0,0,1-2.7,1.826,20.065,20.065,0,0,1-2.726,1.344,6.959,6.959,0,0,1-2.536.532,3.384,3.384,0,0,1-2.536-.8,3.03,3.03,0,0,1-.773-2.193,10.382,10.382,0,0,1,1.192-4.31,28.485,28.485,0,0,1,3.322-5.236,46.106,46.106,0,0,1,5.071-5.426,44.53,44.53,0,0,1,6.339-4.817,36.761,36.761,0,0,1,7.188-3.448,23.161,23.161,0,0,1,7.607-1.268,3.613,3.613,0,0,1,1.876.33.938.938,0,0,1,.52.8Z" transform="translate(21.072 -154.606)" fill="#976d6e"/>
      <path id="Контур_29" data-name="Контур 29" d="M138.981,180.083a4.64,4.64,0,0,1-.444,2.028,5.539,5.539,0,0,1-1.2,1.686,5.718,5.718,0,0,1-1.724,1.128,5.07,5.07,0,0,1-2.016.418,3.4,3.4,0,0,1-2.536-.951,3.309,3.309,0,0,1-.964-2.459,4.7,4.7,0,0,1,.456-2.041,5.6,5.6,0,0,1,1.192-1.673,6.033,6.033,0,0,1,1.711-1.141,4.854,4.854,0,0,1,1.978-.418,3.423,3.423,0,0,1,2.536.989,3.309,3.309,0,0,1,.989,2.434Zm-7.607,9.813a1.028,1.028,0,0,1-.114.3l-2.244,2.814q-1.268,1.61-2.662,3.5c-.926,1.268-1.826,2.536-2.726,3.8s-1.712,2.535-2.434,3.8a29.483,29.483,0,0,0-1.724,3.5,7.607,7.607,0,0,0-.672,2.815c0,1.559.444,2.345,1.268,2.345q2.536,0,10.485-9.47a.33.33,0,0,1,.241.127.647.647,0,0,1,.114.887,39.3,39.3,0,0,1-8.2,8.3q-3.8,2.6-6.162,2.536a2.929,2.929,0,0,1-2.282-.9,3.7,3.7,0,0,1-.837-2.624,9.1,9.1,0,0,1,.685-3.093,33.078,33.078,0,0,1,1.8-3.8c.735-1.356,1.572-2.751,2.536-4.171s1.889-2.764,2.827-4.044,1.838-2.434,2.713-3.474,1.648-1.876,2.282-2.535a8.713,8.713,0,0,1,.9-.811,2.675,2.675,0,0,1,.685-.38,2.155,2.155,0,0,1,.723-.152h1.052c1.154,0,1.724.228,1.724.659Z" transform="translate(26.945 -156.729)" fill="#976d6e"/>
      <path id="Контур_30" data-name="Контур 30" d="M137.641,184.578c0-.558-.152-.913-.456-1.052a2.534,2.534,0,0,0-1.1-.2,2.345,2.345,0,0,0-1.8.773,2.637,2.637,0,0,0-.723,1.851,3.283,3.283,0,0,0,.57,1.75,4.564,4.564,0,0,0,1.889,1.547,22.083,22.083,0,0,0,1.268-2.688,6.337,6.337,0,0,0,.418-1.978Zm11.968,5.806a.761.761,0,0,1-.178.482q-2.4,2.206-4.729,4.818c-1.559,1.737-2.954,3.461-4.2,5.147a37.28,37.28,0,0,0-2.992,4.767,8.417,8.417,0,0,0-1.141,3.588c0,1.559.444,2.345,1.268,2.345q2.536,0,10.485-9.47a.342.342,0,0,1,.241.127.71.71,0,0,1,.241.469.659.659,0,0,1-.127.418,38.729,38.729,0,0,1-7.9,8.088c-2.4,1.673-4.361,2.536-5.87,2.536a4.754,4.754,0,0,1-3.081-.786,2.536,2.536,0,0,1-.938-2.028,8.507,8.507,0,0,1,1.268-3.993,40.566,40.566,0,0,1,3.119-4.691,53.255,53.255,0,0,1,3.8-4.526c1.356-1.42,2.536-2.536,3.474-3.5a34.3,34.3,0,0,1-3.8-.964,16.845,16.845,0,0,1-2.878-1.192c-1.268,2.028-2.738,4.133-4.4,6.339s-3.322,4.285-5.071,6.339l-.292-.114a.418.418,0,0,1-.3-.418,1.394,1.394,0,0,1,.418-.786l1.078-1.268a63.392,63.392,0,0,0,4.108-5.3c1.268-1.851,2.447-3.626,3.448-5.3a7.872,7.872,0,0,1-2.536-2.269,4.362,4.362,0,0,1-.773-2.4,4.12,4.12,0,0,1,.532-2.041,5.742,5.742,0,0,1,1.471-1.673,7.274,7.274,0,0,1,2.155-1.141,7.834,7.834,0,0,1,2.536-.418,1.42,1.42,0,0,1,1.61,1.623,7.607,7.607,0,0,1-.71,2.751,40.937,40.937,0,0,1-1.914,3.8,13.185,13.185,0,0,0,4.184.545h2.815a19.9,19.9,0,0,0,2.282-.178c.685-.076,1.407-.178,2.092-.3a1.141,1.141,0,0,1,.482.127l.355.241a.38.38,0,0,1,.178.355Z" transform="translate(30.188 -155.417)" fill="#976d6e"/>
    </g>
  </g>
</svg>
